<svg width="1187" height="222" viewBox="0 0 1187 222" fill="none" xmlns="http://www.w3.org/2000/svg">
<path d="M177.019 193.937L58.2201 193.967C55.4839 193.959 53.0719 192.151 52.4199 189.584L24.5717 80.5441C23.9755 78.1965 20.8515 77.5843 19.298 79.4626L4.61768 97.0119C3.42929 98.485 2.97749 100.396 3.42459 102.156L17.749 158.253C26.8391 193.738 59.3959 219.494 97.2761 219.478L159.94 218.343C162.546 218.467 163.322 217.733 165.468 215.609L179.295 198.591C180.849 196.713 179.516 193.928 177.019 193.937Z" fill="url(#paint0_linear_784_7783)"/>
<path d="M62.7539 128.162C69.032 152.882 91.8261 170.05 118.156 170.079L200.251 170.078C202.124 170.071 203.822 169.346 204.955 167.965L223.555 145.576L240.922 124.768C242.11 123.294 242.562 121.383 242.115 119.623L227.791 63.5258C218.774 28.0228 186.092 3.29283 148.304 3.36314L85.6727 3.41803C83.8 3.42512 82.0587 4.25777 80.9252 5.63883L62.3695 27.9205L45.0021 48.729C43.8137 50.2021 43.3619 52.1128 43.809 53.8733L49.4909 76.246L62.7539 128.162ZM92.7126 141.246L77.27 80.7479C76.6739 78.4007 78.5199 76.1356 81.0175 76.1263L147.082 76.0582C149.818 76.0661 152.23 77.8744 152.882 80.4416L168.325 140.94C168.921 143.287 167.074 145.552 164.577 145.562L98.5123 145.63C95.7765 145.622 93.3646 143.813 92.7126 141.246ZM68.6859 27.878L187.393 27.7935C190.129 27.8014 192.541 29.6092 193.193 32.1769L220.986 140.997C221.582 143.344 219.736 145.609 217.238 145.618L199.666 145.63C197.628 145.601 195.806 144.268 195.321 142.361L187.59 111.919C178.519 76.5076 145.91 51.7591 108.03 51.7747L73.3451 51.7601C71.3067 51.7311 69.484 50.3981 68.9996 48.4909L64.9384 32.4997C64.3423 30.1524 66.1888 27.8875 68.6859 27.878Z" fill="url(#paint1_linear_784_7783)"/>
<path d="M296.052 170.997V61.3505H309.308V159.218H360.191V170.997H296.052Z" fill="black"/>
<path d="M377.405 170.997V61.3505H443.468V73.1288H390.66V110.177H440.047V121.956H390.66V159.218H444.323V170.997H377.405Z" fill="black"/>
<path d="M464.049 61.3505H479.87L517.07 152.365H518.353L555.554 61.3505H571.375V170.997H558.975V87.6912H557.906L523.698 170.997H511.725L477.518 87.6912H476.449V170.997H464.049V61.3505Z" fill="black"/>
<path d="M607.897 61.3505V170.997H594.641V61.3505H607.897Z" fill="black"/>
<path d="M670.184 170.997V61.3505H735.82V73.1288H683.439V110.177H730.902V121.956H683.439V170.997H670.184Z" fill="black"/>
<path d="M753.501 170.997V88.762H766.115V170.997H753.501ZM759.914 75.0562C757.456 75.0562 755.336 74.2175 753.554 72.5399C751.808 70.8624 750.935 68.8458 750.935 66.4901C750.935 64.1344 751.808 62.1178 753.554 60.4403C755.336 58.7628 757.456 57.924 759.914 57.924C762.373 57.924 764.475 58.7628 766.221 60.4403C768.003 62.1178 768.894 64.1344 768.894 66.4901C768.894 68.8458 768.003 70.8624 766.221 72.5399C764.475 74.2175 762.373 75.0562 759.914 75.0562Z" fill="black"/>
<path d="M798.521 121.527V170.997H785.907V88.762H798.093V101.611H799.162C801.086 97.4352 804.008 94.0801 807.928 91.546C811.848 88.9762 816.907 87.6912 823.107 87.6912C828.666 87.6912 833.53 88.8334 837.699 91.1177C841.868 93.3663 845.111 96.7927 847.427 101.397C849.743 105.966 850.901 111.748 850.901 118.743V170.997H838.287V119.6C838.287 113.14 836.612 108.107 833.263 104.502C829.913 100.862 825.317 99.0413 819.473 99.0413C815.446 99.0413 811.847 99.9158 808.676 101.665C805.54 103.414 803.064 105.966 801.247 109.321C799.429 112.676 798.521 116.745 798.521 121.527Z" fill="black"/>
<path d="M894.799 172.924C889.597 172.924 884.875 171.942 880.635 169.979C876.395 167.981 873.027 165.107 870.533 161.36C868.039 157.576 866.792 153.008 866.792 147.654C866.792 142.943 867.718 139.124 869.571 136.197C871.424 133.234 873.9 130.914 877 129.237C880.1 127.559 883.521 126.31 887.263 125.489C891.04 124.633 894.835 123.954 898.647 123.455C903.636 122.812 907.68 122.33 910.78 122.009C913.916 121.652 916.197 121.063 917.622 120.242C919.083 119.422 919.813 117.994 919.813 115.959V115.531C919.813 110.249 918.37 106.144 915.484 103.217C912.633 100.291 908.304 98.8272 902.496 98.8272C896.474 98.8272 891.752 100.148 888.332 102.789C884.911 105.43 882.506 108.25 881.116 111.248L869.143 106.965C871.281 101.968 874.132 98.0776 877.695 95.2937C881.294 92.474 885.214 90.5109 889.454 89.4045C893.73 88.2623 897.935 87.6912 902.068 87.6912C904.705 87.6912 907.734 88.0125 911.154 88.6549C914.611 89.2617 917.943 90.5288 921.15 92.4561C924.392 94.3835 927.082 97.2924 929.22 101.183C931.358 105.073 932.427 110.284 932.427 116.816V170.997H919.813V159.861H919.172C918.317 161.645 916.891 163.555 914.896 165.589C912.901 167.624 910.246 169.355 906.932 170.782C903.618 172.21 899.574 172.924 894.799 172.924ZM896.723 161.574C901.712 161.574 905.916 160.592 909.337 158.629C912.794 156.666 915.395 154.132 917.141 151.027C918.922 147.922 919.813 144.656 919.813 141.229V129.665C919.279 130.308 918.103 130.897 916.286 131.432C914.504 131.932 912.437 132.378 910.085 132.77C907.769 133.127 905.507 133.449 903.297 133.734C901.124 133.984 899.36 134.198 898.006 134.377C894.728 134.805 891.663 135.501 888.813 136.465C885.998 137.393 883.717 138.802 881.971 140.694C880.261 142.55 879.406 145.084 879.406 148.296C879.406 152.687 881.027 156.006 884.269 158.255C887.548 160.467 891.699 161.574 896.723 161.574Z" fill="black"/>
<path d="M964.753 121.527V170.997H952.139V88.762H964.326V101.611H965.395C967.319 97.4352 970.241 94.0801 974.16 91.546C978.08 88.9762 983.14 87.6912 989.34 87.6912C994.899 87.6912 999.763 88.8334 1003.93 91.1177C1008.1 93.3663 1011.34 96.7927 1013.66 101.397C1015.98 105.966 1017.13 111.748 1017.13 118.743V170.997H1004.52V119.6C1004.52 113.14 1002.84 108.107 999.495 104.502C996.146 100.862 991.549 99.0413 985.706 99.0413C981.679 99.0413 978.08 99.9158 974.909 101.665C971.773 103.414 969.297 105.966 967.479 109.321C965.662 112.676 964.753 116.745 964.753 121.527Z" fill="black"/>
<path d="M1070.22 172.71C1062.53 172.71 1055.9 170.89 1050.34 167.249C1044.78 163.608 1040.51 158.594 1037.51 152.205C1034.52 145.816 1033.02 138.517 1033.02 130.308C1033.02 121.956 1034.56 114.585 1037.62 108.196C1040.72 101.772 1045.03 96.757 1050.56 93.1521C1056.11 89.5115 1062.6 87.6912 1070.01 87.6912C1075.78 87.6912 1080.99 88.762 1085.62 90.9035C1090.25 93.0451 1094.05 96.0432 1097 99.8979C1099.96 103.753 1101.8 108.25 1102.51 113.39H1089.89C1088.93 109.642 1086.79 106.323 1083.48 103.431C1080.2 100.505 1075.78 99.0413 1070.22 99.0413C1065.31 99.0413 1061 100.326 1057.29 102.896C1053.62 105.43 1050.75 109.017 1048.68 113.657C1046.65 118.262 1045.64 123.669 1045.64 129.879C1045.64 136.233 1046.64 141.765 1048.63 146.476C1050.66 151.188 1053.51 154.846 1057.18 157.451C1060.89 160.057 1065.24 161.36 1070.22 161.36C1073.5 161.36 1076.48 160.789 1079.15 159.647C1081.82 158.504 1084.09 156.863 1085.94 154.721C1087.79 152.58 1089.11 150.01 1089.89 147.012H1102.51C1101.8 151.866 1100.03 156.238 1097.22 160.128C1094.44 163.983 1090.75 167.053 1086.15 169.337C1081.59 171.586 1076.28 172.71 1070.22 172.71Z" fill="black"/>
<path d="M1152.06 172.71C1144.15 172.71 1137.32 170.961 1131.59 167.463C1125.89 163.93 1121.49 159.004 1118.39 152.687C1115.32 146.333 1113.79 138.945 1113.79 130.522C1113.79 122.098 1115.32 114.674 1118.39 108.25C1121.49 101.79 1125.8 96.757 1131.32 93.1521C1136.88 89.5115 1143.36 87.6912 1150.78 87.6912C1155.05 87.6912 1159.27 88.4051 1163.44 89.8328C1167.61 91.2604 1171.41 93.5804 1174.83 96.7927C1178.25 99.9693 1180.97 104.181 1183.01 109.428C1185.04 114.674 1186.05 121.135 1186.05 128.809V134.162H1122.77V123.241H1173.22C1173.22 118.601 1172.3 114.46 1170.44 110.82C1168.63 107.179 1166.03 104.306 1162.64 102.2C1159.29 100.094 1155.34 99.0413 1150.78 99.0413C1145.75 99.0413 1141.4 100.291 1137.73 102.789C1134.1 105.252 1131.3 108.464 1129.34 112.426C1127.38 116.388 1126.4 120.635 1126.4 125.168V132.449C1126.4 138.66 1127.47 143.924 1129.61 148.243C1131.78 152.526 1134.79 155.792 1138.64 158.04C1142.49 160.253 1146.96 161.36 1152.06 161.36C1155.37 161.36 1158.37 160.896 1161.04 159.968C1163.75 159.004 1166.08 157.576 1168.04 155.685C1170 153.757 1171.51 151.366 1172.58 148.511L1184.77 151.937C1183.49 156.077 1181.33 159.718 1178.3 162.859C1175.27 165.964 1171.53 168.391 1167.08 170.14C1162.62 171.853 1157.62 172.71 1152.06 172.71Z" fill="black"/>
<defs>
<linearGradient id="paint0_linear_784_7783" x1="121.741" y1="1.43176" x2="124.31" y2="219.916" gradientUnits="userSpaceOnUse">
<stop stop-color="#0046D5"/>
<stop offset="0.192308" stop-color="#1E5BD7"/>
</linearGradient>
<linearGradient id="paint1_linear_784_7783" x1="228.264" y1="65.0846" x2="57.6598" y2="108.412" gradientUnits="userSpaceOnUse">
<stop stop-color="#0046D5"/>
<stop offset="1" stop-color="#1E5BD7"/>
</linearGradient>
</defs>
</svg>
